<?xml version="1.0" encoding="iso-8859-1"?>
<!-- Generator: Adobe Illustrator 18.0.0, SVG Export Plug-In . SVG Version: 6.00 Build 0)  -->
<!DOCTYPE svg PUBLIC "-//W3C//DTD SVG 1.1//EN" "http://www.w3.org/Graphics/SVG/1.1/DTD/svg11.dtd">
<svg version="1.1" id="Capa_1" xmlns="http://www.w3.org/2000/svg" xmlns:xlink="http://www.w3.org/1999/xlink" x="0px" y="0px"
	 viewBox="0 0 297 297" style="enable-background:new 0 0 297 297;" xml:space="preserve">
<g>
	<path d="M113.739,153.887h69.523c27.25-13.021,46.128-40.835,46.128-72.997C229.39,36.287,193.103,0,148.5,0
		S67.61,36.287,67.61,80.89C67.61,113.052,86.488,140.866,113.739,153.887z M196.416,58.159c1.341-1.331,3.185-2.099,5.069-2.099
		c1.894,0,3.737,0.768,5.069,2.099c1.341,1.331,2.099,3.185,2.099,5.069c0,1.884-0.758,3.737-2.099,5.069
		c-1.332,1.331-3.185,2.099-5.069,2.099c-1.884,0-3.728-0.768-5.069-2.099c-1.331-1.332-2.099-3.185-2.099-5.069
		C194.318,61.343,195.085,59.489,196.416,58.159z M196.416,93.484c1.341-1.331,3.185-2.099,5.069-2.099
		c1.894,0,3.737,0.768,5.069,2.099c1.341,1.331,2.099,3.185,2.099,5.069c0,1.884-0.758,3.737-2.099,5.069
		c-1.332,1.331-3.185,2.099-5.069,2.099c-1.884,0-3.728-0.768-5.069-2.099c-1.331-1.332-2.099-3.185-2.099-5.069
		C194.318,96.669,195.085,94.815,196.416,93.484z M178.754,75.821c1.331-1.331,3.185-2.099,5.069-2.099
		c1.894,0,3.737,0.768,5.069,2.099c1.341,1.331,2.099,3.185,2.099,5.069c0,1.884-0.758,3.737-2.099,5.069
		c-1.332,1.331-3.175,2.099-5.069,2.099c-1.884,0-3.728-0.768-5.069-2.099c-1.331-1.332-2.099-3.185-2.099-5.069
		C176.655,79.006,177.423,77.152,178.754,75.821z M178.754,111.146c1.341-1.331,3.185-2.099,5.069-2.099
		c1.894,0,3.737,0.768,5.069,2.099c1.341,1.331,2.099,3.185,2.099,5.069c0,1.884-0.758,3.737-2.099,5.069
		c-1.332,1.331-3.185,2.099-5.069,2.099c-1.884,0-3.728-0.768-5.069-2.099c-1.331-1.332-2.099-3.175-2.099-5.069
		C176.655,114.331,177.423,112.477,178.754,111.146z M161.091,93.484c1.331-1.331,3.185-2.099,5.069-2.099
		c1.894,0,3.737,0.768,5.069,2.099c1.341,1.331,2.099,3.185,2.099,5.069c0,1.884-0.758,3.737-2.099,5.069
		c-1.332,1.331-3.175,2.099-5.069,2.099c-1.884,0-3.728-0.768-5.069-2.099c-1.331-1.332-2.099-3.185-2.099-5.069
		C158.992,96.669,159.76,94.815,161.091,93.484z M161.091,128.809c1.341-1.331,3.185-2.099,5.069-2.099
		c1.894,0,3.737,0.768,5.069,2.099c1.341,1.331,2.099,3.185,2.099,5.069c0,1.884-0.758,3.737-2.099,5.069
		c-1.332,1.331-3.175,2.099-5.069,2.099c-1.884,0-3.728-0.768-5.069-2.099c-1.331-1.332-2.099-3.185-2.099-5.069
		C158.992,131.994,159.76,130.14,161.091,128.809z M143.428,111.146c1.341-1.331,3.185-2.099,5.069-2.099
		c1.894,0,3.737,0.768,5.069,2.099c1.341,1.331,2.099,3.185,2.099,5.069c0,1.884-0.758,3.737-2.099,5.069
		c-1.332,1.331-3.185,2.099-5.069,2.099c-1.884,0-3.728-0.768-5.069-2.099c-1.331-1.332-2.099-3.185-2.099-5.069
		C141.33,114.331,142.098,112.477,143.428,111.146z M125.766,128.809c1.331-1.331,3.185-2.099,5.069-2.099
		c1.894,0,3.737,0.768,5.069,2.099c1.341,1.331,2.099,3.185,2.099,5.069c0,1.884-0.758,3.737-2.099,5.069
		c-1.332,1.331-3.175,2.099-5.069,2.099c-1.884,0-3.728-0.768-5.069-2.099c-1.331-1.332-2.099-3.185-2.099-5.069
		C123.667,131.994,124.435,130.14,125.766,128.809z"/>
	<path d="M132.548,194.932c1.29,1.291,2.015,3.041,2.015,4.865v91.932c0,2.911,2.359,5.27,5.27,5.27h17.334
		c2.911,0,5.27-2.359,5.27-5.27v-91.932c0-1.824,0.725-3.574,2.015-4.865l20.891-20.891c3.32-3.32,0.969-8.997-3.726-8.997h-66.233
		c-4.695,0-7.047,5.677-3.726,8.997L132.548,194.932z"/>
</g>
<g>
</g>
<g>
</g>
<g>
</g>
<g>
</g>
<g>
</g>
<g>
</g>
<g>
</g>
<g>
</g>
<g>
</g>
<g>
</g>
<g>
</g>
<g>
</g>
<g>
</g>
<g>
</g>
<g>
</g>
</svg>
